<svg xmlns="http://www.w3.org/2000/svg" width="469" height="127" viewBox="0 0 469 127">
  <g fill="none" fill-rule="evenodd">
    <path fill="#000" stroke="#333" stroke-width="1.548" d="M119.36163,63.1873961 C119.36163,97.6576955 92.8147601,125.601394 60.0675365,125.601394 C27.3203128,125.601394 0.773442852,97.6576955 0.773442852,63.1873961 C0.773442852,28.7170967 27.3203128,0.773397884 60.0675365,0.773397884 C92.8147601,0.773397884 119.36163,28.7170967 119.36163,63.1873961 Z"/>
    <path fill="#3E3F42" d="M66.7636097,1.17000446 C80.0100762,12.6196517 88.4612445,29.9663589 88.4612445,49.4028651 C88.4612357,83.8553937 61.9176946,111.820391 29.1873691,111.820391 C26.9145196,111.820391 24.6560978,111.686091 22.4495579,111.423621 C32.6871072,120.282493 45.7956468,125.608296 60.0729211,125.608296 C92.8032466,125.608296 119.370362,97.6432892 119.370353,63.1907694 C119.370353,31.1222316 96.3438621,4.67621783 66.7636097,1.17000446 Z"/>
    <path stroke="#E3DBDB" stroke-width=".58" d="M0.804468375,59.7858871 C0.804468375,59.7858871 16.7462345,27.6894932 58.7258596,24.3250283 C104.066641,20.6911759 117.537637,46.1635801 117.537637,46.1635801"/>
    <path stroke="#666" stroke-width="1.547" d="M0.804468375,61.3729851 C0.804468375,61.3729851 16.7462345,28.7357993 58.7258596,25.3713255 C104.066641,21.7374731 117.537637,47.7506693 117.537637,47.7506693"/>
    <path stroke="#E3DBDB" stroke-width=".58" d="M56.164002,0.817137122 C56.164002,0.817137122 20.3485598,10.8182945 23.0485036,36.6376746 C26.3278964,67.7363447 114.208282,85.6003577 114.208282,85.6003577"/>
    <path stroke="#4D4D4D" stroke-width="1.547" d="M57.910284,0.817137122 C57.910284,0.817137122 21.4273042,10.8182945 24.127248,36.6376746 C27.4066408,67.7363447 115.477525,84.8471376 115.477525,84.8471376"/>
    <path stroke="#E3DBDB" stroke-width=".58" d="M12.5475024,24.8473144 C12.5475024,24.8473144 2.70017716,50.9144094 29.2695043,92.2772199 C48.5723032,122.327602 85.4240112,119.402094 85.4240112,119.402094"/>
    <path stroke="#4D4D4D" stroke-width="1.547" d="M13.4240801,24.8473144 C13.4240801,24.8473144 3.58376087,50.9144094 30.598927,92.1833637 C50.1523863,122.053641 87.2473596,118.571604 87.2473596,118.571604"/>
    <path stroke="#E3DBDB" stroke-width=".58" d="M3.22737282,44.6346534 C3.22737282,44.6346534 0.767235519,55.6332515 3.4430297,70.4367043 C6.11882388,85.240157 13.7263659,102.823061 13.7263659,102.823061"/>
    <path stroke="#4D4D4D" stroke-width="1.547" d="M3.46764815,44.532022 C3.46764815,44.532022 1.78749893,55.6332515 4.46329311,70.4367043 C7.13908729,85.240157 14.454136,102.925684 14.454136,102.925684"/>
    <path stroke="#4D4D4D" stroke-width="1.547" d="M0.804468375,61.3729851 C0.804468375,61.3729851 16.7462345,28.7357993 58.7258596,25.3713255 C104.066641,21.7374731 117.537637,47.7506693 117.537637,47.7506693"/>
    <path d="M119.36163,63.1873961 C119.36163,97.6576955 92.8147601,125.601394 60.0675365,125.601394 C27.3203128,125.601394 0.773442852,97.6576955 0.773442852,63.1873961 C0.773442852,28.7170967 27.3203128,0.773397884 60.0675365,0.773397884 C92.8147601,0.773397884 119.36163,28.7170967 119.36163,63.1873961 Z"/>
    <path stroke="#4D4D4D" stroke-width="1.548" d="M119.36163,63.1873961 C119.36163,97.6576955 92.8147601,125.601394 60.0675365,125.601394 C27.3203128,125.601394 0.773442852,97.6576955 0.773442852,63.1873961 C0.773442852,28.7170967 27.3203128,0.773397884 60.0675365,0.773397884 C92.8147601,0.773397884 119.36163,28.7170967 119.36163,63.1873961 Z"/>
    <path fill="#000" d="M166.841418,66.2758394 L172.550373,47 L184,47 L170.01306,86.9104674 L169.410448,88.3640553 C167.422876,92.7880406 163.91296,95 158.880597,95 C157.485068,95 156.015555,94.7893372 154.472015,94.3680053 L154.472015,86.7524687 L155.867537,86.7524687 C157.368789,86.7524687 158.515854,86.5365394 159.308769,86.1046741 C160.101683,85.6728089 160.688431,84.8986231 161.06903,83.7820935 L161.925373,81.5069124 L150,47 L161.41791,47 L166.841418,66.2758394 Z M208.645492,76.6488203 C206.37977,79.5496213 203.320033,81 199.466189,81 C195.697044,81 192.84376,79.9042759 190.90625,77.7127949 C188.96874,75.5213139 188,72.3717689 188,68.2640653 L188,46 L198.703893,46 L198.703893,68.3275862 C198.703893,71.2707346 200.133182,72.7422868 202.991803,72.7422868 C205.4481,72.7422868 207.195008,71.8635902 208.232582,70.1061706 L208.232582,46 L219,46 L219,80.3647913 L208.963115,80.3647913 L208.645492,76.6488203 Z M223,63.3717277 C223,59.9371556 223.578942,56.9005368 224.736842,54.2617801 C225.894743,51.6230235 227.556519,49.5863946 229.722222,48.1518325 C231.887925,46.7172703 234.407393,46 237.280702,46 C240.904502,46 243.734883,47.1937053 245.77193,49.5811518 L246.157895,46.6282723 L256,46.6282723 L256,79.3298429 C256,82.3246223 255.287044,84.9266905 253.861111,87.1361257 C252.435178,89.3455608 250.371359,91.0418789 247.669591,92.2251309 C244.967823,93.4083829 241.83725,94 238.277778,94 C235.726108,94 233.254885,93.5288005 230.864035,92.5863874 C228.473185,91.6439743 226.64523,90.4188557 225.380117,88.9109948 L229.915205,82.6910995 C231.930809,85.0157184 234.589652,86.1780105 237.891813,86.1780105 C242.694956,86.1780105 245.096491,83.7696576 245.096491,78.9528796 L245.096491,77.8848168 C243.016559,80.1256657 240.389879,81.2460733 237.216374,81.2460733 C232.970739,81.2460733 229.539974,79.6597017 226.923977,76.486911 C224.307979,73.3141203 223,69.0680894 223,63.7486911 L223,63.3717277 Z M234,63.910299 C234,66.7087626 234.57306,68.923303 235.719198,70.5539867 C236.865335,72.1846704 238.469904,73 240.532951,73 C243.031531,73 244.853862,72.2320121 246,70.6960133 L246,56.3355482 C244.876785,54.7785083 243.077376,54 240.601719,54 C238.538672,54 236.922642,54.8468908 235.753582,56.5406977 C234.584521,58.2345046 234,60.6910138 234,63.910299 Z M261,62.6791444 C261,59.2138864 261.683901,56.1283558 263.051724,53.4224599 C264.419547,50.716564 266.384406,48.6363709 268.94636,47.1818182 C271.508314,45.7272655 274.515308,45 277.967433,45 C283.243321,45 287.401007,46.6096096 290.440613,49.828877 C293.48022,53.0481444 295,57.4277798 295,62.9679144 L295,63.3529412 C295,68.7647329 293.474792,73.0588076 290.42433,76.2352941 C287.373867,79.4117806 283.243321,81 278.032567,81 C273.017216,81 268.989798,79.5187314 265.950192,76.5561497 C262.910585,73.5935681 261.271393,69.5775655 261.032567,64.5080214 L261,62.6791444 Z M272,63.8471761 C272,67.003338 272.508103,69.3178221 273.524324,70.7906977 C274.540546,72.2635733 276.043233,73 278.032432,73 C281.924344,73 283.913513,70.0858542 284,64.2574751 L284,63.1843854 C284,57.0614312 281.989209,54 277.967568,54 C274.313495,54 272.335137,56.6406159 272.032432,61.9219269 L272,63.8471761 Z M317.363064,70.6042781 C317.363064,69.6844874 316.875136,68.9465268 315.899265,68.3903743 C314.923395,67.8342218 313.069269,67.2566875 310.336831,66.657754 C307.604393,66.0588205 305.349082,65.2727321 303.570829,64.2994652 C301.792576,63.3261983 300.43722,62.144392 299.504722,60.7540107 C298.572223,59.3636294 298.105981,57.7700625 298.105981,55.973262 C298.105981,52.7860803 299.439651,50.1604381 302.10703,48.0962567 C304.77441,46.0320752 308.265806,45 312.581322,45 C317.222129,45 320.952067,46.0374228 323.771249,48.1122995 C326.59043,50.1871761 328,52.9144216 328,56.2941176 L317.005247,56.2941176 C317.005247,53.5133551 315.519777,52.1229947 312.548793,52.1229947 C311.399435,52.1229947 310.434422,52.4384995 309.653725,53.0695187 C308.873029,53.7005379 308.482686,54.4866263 308.482686,55.4278075 C308.482686,56.3903791 308.959771,57.17112 309.913956,57.7700535 C310.86814,58.368987 312.39156,58.8609606 314.48426,59.2459893 C316.57696,59.631018 318.414822,60.0909064 319.997901,60.6256684 C325.289288,62.4224689 327.934942,65.641688 327.934942,70.2834225 C327.934942,73.4492137 326.509108,76.026728 323.657398,78.0160428 C320.805687,80.0053575 317.113699,81 312.581322,81 C309.566966,81 306.877941,80.465246 304.514166,79.3957219 C302.15039,78.3261979 300.307107,76.871667 298.98426,75.0320856 C297.661413,73.1925042 297,71.2566947 297,69.2245989 L307.24659,69.2245989 C307.289962,70.828885 307.832104,71.9999963 308.873033,72.7379679 C309.913961,73.4759395 311.247631,73.8449198 312.874082,73.8449198 C314.370417,73.8449198 315.492651,73.5454575 316.240818,72.9465241 C316.988986,72.3475906 317.363064,71.5668497 317.363064,70.6042781 Z M346,80 L335,80 L335,31 L346,31 L346,80 Z M371.172691,80.3582888 C370.787147,79.6524029 370.444446,78.6149801 370.144578,77.2459893 C368.1526,79.7486756 365.368157,81 361.791165,81 C358.51404,81 355.729596,80.0107051 353.437751,78.0320856 C351.145906,76.053466 350,73.5668599 350,70.5721925 C350,66.8074678 351.392222,63.9625765 354.176707,62.0374332 C356.961192,60.1122898 361.009344,59.1497326 366.321285,59.1497326 L369.662651,59.1497326 L369.662651,57.3208556 C369.662651,54.1336739 368.281138,52.540107 365.518072,52.540107 C362.947778,52.540107 361.662651,53.8021264 361.662651,56.3262032 L350.835341,56.3262032 C350.835341,52.9678976 352.265046,50.2406522 355.124498,48.144385 C357.98395,46.0481179 361.6305,45 366.064257,45 C370.498014,45 373.999987,46.0802031 376.570281,48.2406417 C379.140575,50.4010803 380.457831,53.3636175 380.522088,57.1283422 L380.522088,72.4973262 C380.564927,75.6845079 381.057559,78.1229862 382,79.8128342 L382,80.3582888 L371.172691,80.3582888 Z M364.613139,74 C365.992708,74 367.136857,73.6896583 368.04562,73.0689655 C368.954384,72.4482728 369.605837,71.7471303 370,70.9655172 L370,65 L366.781022,65 C362.926988,65 361,66.8160738 361,70.4482759 C361,71.5057524 361.339413,72.3620657 362.018248,73.0172414 C362.697084,73.6724171 363.562039,74 364.613139,74 Z M399.967619,68.0286506 L405.504762,46 L417,46 L405.569524,81 L394.430476,81 L383,46 L394.527619,46 L399.967619,68.0286506 Z M432,81 L421,81 L421,46 L432,46 L432,81 Z M421,37.5 C421,35.8902359 421.556144,34.5711434 422.668449,33.5426829 C423.780754,32.5142225 425.22459,32 427,32 C428.77541,32 430.219246,32.5142225 431.331551,33.5426829 C432.443856,34.5711434 433,35.8902359 433,37.5 C433,39.1097641 432.443856,40.4288566 431.331551,41.4573171 C430.219246,42.4857775 428.77541,43 427,43 C425.22459,43 423.780754,42.4857775 422.668449,41.4573171 C421.556144,40.4288566 421,39.1097641 421,37.5 Z M458.172691,80.3582888 C457.787147,79.6524029 457.444446,78.6149801 457.144578,77.2459893 C455.1526,79.7486756 452.368157,81 448.791165,81 C445.51404,81 442.729596,80.0107051 440.437751,78.0320856 C438.145906,76.053466 437,73.5668599 437,70.5721925 C437,66.8074678 438.392222,63.9625765 441.176707,62.0374332 C443.961192,60.1122898 448.009344,59.1497326 453.321285,59.1497326 L456.662651,59.1497326 L456.662651,57.3208556 C456.662651,54.1336739 455.281138,52.540107 452.518072,52.540107 C449.947778,52.540107 448.662651,53.8021264 448.662651,56.3262032 L437.835341,56.3262032 C437.835341,52.9678976 439.265046,50.2406522 442.124498,48.144385 C444.98395,46.0481179 448.6305,45 453.064257,45 C457.498014,45 460.999987,46.0802031 463.570281,48.2406417 C466.140575,50.4010803 467.457831,53.3636175 467.522088,57.1283422 L467.522088,72.4973262 C467.564927,75.6845079 468.057559,78.1229862 469,79.8128342 L469,80.3582888 L458.172691,80.3582888 Z M451.613139,74 C452.992708,74 454.136857,73.6896583 455.04562,73.0689655 C455.954384,72.4482728 456.605837,71.7471303 457,70.9655172 L457,65 L453.781022,65 C449.926988,65 448,66.8160738 448,70.4482759 C448,71.5057524 448.339413,72.3620657 449.018248,73.0172414 C449.697084,73.6724171 450.562039,74 451.613139,74 Z"/>
  </g>
</svg>
