<svg xmlns="http://www.w3.org/2000/svg" width="643" height="127" viewBox="0 0 643 127">
  <g fill="none" fill-rule="evenodd">
    <path fill="#3E3F42" stroke="#333" stroke-width="1.548" d="M119.36163,63.1873961 C119.36163,97.6576955 92.8147601,125.601394 60.0675365,125.601394 C27.3203128,125.601394 0.773442852,97.6576955 0.773442852,63.1873961 C0.773442852,28.7170967 27.3203128,0.773397884 60.0675365,0.773397884 C92.8147601,0.773397884 119.36163,28.7170967 119.36163,63.1873961 Z"/>
    <path fill="#3E3F42" d="M66.7636097,1.17000446 C80.0100762,12.6196517 88.4612445,29.9663589 88.4612445,49.4028651 C88.4612357,83.8553937 61.9176946,111.820391 29.1873691,111.820391 C26.9145196,111.820391 24.6560978,111.686091 22.4495579,111.423621 C32.6871072,120.282493 45.7956468,125.608296 60.0729211,125.608296 C92.8032466,125.608296 119.370362,97.6432892 119.370353,63.1907694 C119.370353,31.1222316 96.3438621,4.67621783 66.7636097,1.17000446 Z"/>
    <path stroke="#FFFFFF" stroke-width=".58" d="M0.804468375,59.7858871 C0.804468375,59.7858871 16.7462345,27.6894932 58.7258596,24.3250283 C104.066641,20.6911759 117.537637,46.1635801 117.537637,46.1635801"/>
    <path stroke="#666" stroke-width="1.547" d="M0.804468375,61.3729851 C0.804468375,61.3729851 16.7462345,28.7357993 58.7258596,25.3713255 C104.066641,21.7374731 117.537637,47.7506693 117.537637,47.7506693"/>
    <path stroke="#FFFFFF" stroke-width=".58" d="M56.164002,0.817137122 C56.164002,0.817137122 20.3485598,10.8182945 23.0485036,36.6376746 C26.3278964,67.7363447 114.208282,85.6003577 114.208282,85.6003577"/>
    <path stroke="#3E3F42" stroke-width="1.547" d="M57.910284,0.817137122 C57.910284,0.817137122 21.4273042,10.8182945 24.127248,36.6376746 C27.4066408,67.7363447 115.477525,84.8471376 115.477525,84.8471376"/>
    <path stroke="#FFFFFF" stroke-width=".58" d="M12.5475024,24.8473144 C12.5475024,24.8473144 2.70017716,50.9144094 29.2695043,92.2772199 C48.5723032,122.327602 85.4240112,119.402094 85.4240112,119.402094"/>
    <path stroke="#3E3F42" stroke-width="1.547" d="M13.4240801,24.8473144 C13.4240801,24.8473144 3.58376087,50.9144094 30.598927,92.1833637 C50.1523863,122.053641 87.2473596,118.571604 87.2473596,118.571604"/>
    <path stroke="#FFFFFF" stroke-width=".58" d="M3.22737282,44.6346534 C3.22737282,44.6346534 0.767235519,55.6332515 3.4430297,70.4367043 C6.11882388,85.240157 13.7263659,102.823061 13.7263659,102.823061"/>
    <path stroke="#3E3F42" stroke-width="1.547" d="M3.46764815,44.532022 C3.46764815,44.532022 1.78749893,55.6332515 4.46329311,70.4367043 C7.13908729,85.240157 14.454136,102.925684 14.454136,102.925684"/>
    <path stroke="#3E3F42" stroke-width="1.547" d="M0.804468375,61.3729851 C0.804468375,61.3729851 16.7462345,28.7357993 58.7258596,25.3713255 C104.066641,21.7374731 117.537637,47.7506693 117.537637,47.7506693"/>
    <path d="M119.36163,63.1873961 C119.36163,97.6576955 92.8147601,125.601394 60.0675365,125.601394 C27.3203128,125.601394 0.773442852,97.6576955 0.773442852,63.1873961 C0.773442852,28.7170967 27.3203128,0.773397884 60.0675365,0.773397884 C92.8147601,0.773397884 119.36163,28.7170967 119.36163,63.1873961 Z"/>
    <path stroke="#3E3F42" stroke-width="1.548" d="M119.36163,63.1873961 C119.36163,97.6576955 92.8147601,125.601394 60.0675365,125.601394 C27.3203128,125.601394 0.773442852,97.6576955 0.773442852,63.1873961 C0.773442852,28.7170967 27.3203128,0.773397884 60.0675365,0.773397884 C92.8147601,0.773397884 119.36163,28.7170967 119.36163,63.1873961 Z"/>
    <path fill="#3E3F42" d="M176.252799,68.716919 L185.152052,39 L203,39 L181.196828,100.528637 L180.257463,102.769585 C177.159188,109.589896 171.68785,113 163.843284,113 C161.6679,113 159.377189,112.675228 156.971082,112.025675 L156.971082,100.285056 L159.146455,100.285056 C161.486641,100.285056 163.274714,99.9521648 164.510728,99.2863726 C165.746741,98.6205804 166.661378,97.4270439 167.254664,95.7057275 L168.589552,92.1981567 L150,39 L167.798507,39 L176.252799,68.716919 Z M240.967213,84.2867514 C237.458999,88.7622728 232.721341,91 226.754098,91 C220.918004,91 216.500015,89.3094543 213.5,85.9283122 C210.499985,82.54717 209,77.687872 209,71.3502722 L209,37 L225.57377,37 L225.57377,71.4482759 C225.57377,75.9891334 227.786863,78.2595281 232.213115,78.2595281 C236.016412,78.2595281 238.721303,76.9038248 240.327869,74.1923775 L240.327869,37 L257,37 L257,90.0199637 L241.459016,90.0199637 L240.967213,84.2867514 Z M263,63.7814136 C263,58.4864482 263.894728,53.8049942 265.684211,49.736911 C267.473693,45.6688278 270.041894,42.529025 273.388889,40.3174084 C276.735884,38.1057917 280.629607,37 285.070175,37 C290.670593,37 295.044819,38.8402957 298.192982,42.5209424 L298.789474,37.9685864 L314,37.9685864 L314,88.3835079 C314,93.0004594 312.898159,97.0119812 310.694444,100.418194 C308.49073,103.824406 305.30119,106.439563 301.125731,108.263743 C296.950272,110.087924 292.112113,111 286.611111,111 C282.667622,111 278.848459,110.273567 275.153509,108.820681 C271.458559,107.367794 268.633538,105.479069 266.678363,103.15445 L273.687135,93.565445 C276.80216,97.1492326 280.911281,98.9410995 286.01462,98.9410995 C293.437659,98.9410995 297.149123,95.2282221 297.149123,87.802356 L297.149123,86.1557592 C293.934682,89.6104012 289.875268,91.3376963 284.97076,91.3376963 C278.409324,91.3376963 273.107233,88.8920402 269.064327,84.0006545 C265.021422,79.1092687 263,72.5633045 263,64.3625654 L263,63.7814136 Z M280,65.1262458 C280,69.397585 280.907345,72.777673 282.722063,75.2666113 C284.536781,77.7555495 287.077348,79 290.34384,79 C294.299924,79 297.185282,77.827808 299,75.4833887 L299,53.5647841 C297.221577,51.1882495 294.372512,50 290.452722,50 C287.18623,50 284.627516,51.2926227 282.776504,53.877907 C280.925492,56.4631912 280,60.2126 280,65.1262458 Z M321,63.5008913 C321,58.11049 322.066081,53.3107757 324.198276,49.1016043 C326.33047,44.8924329 329.393339,41.656577 333.386973,39.3939394 C337.380607,37.1313018 342.067981,36 347.449234,36 C355.673413,36 362.15451,38.5038371 366.89272,43.5115865 C371.63093,48.5193358 374,55.3321019 374,63.9500891 L374,64.5490196 C374,72.9673624 371.622469,79.6470341 366.867337,84.5882353 C362.112205,89.5294365 355.673412,92 347.550766,92 C339.73272,92 333.454685,89.6958044 328.716475,85.087344 C323.978265,80.4788837 321.423054,74.2317685 321.050766,66.3458111 L321,63.5008913 Z M338,65.0299003 C338,69.8472002 338.804496,73.3798337 340.413514,75.627907 C342.022531,77.8759802 344.401786,79 347.551351,79 C353.713544,79 356.863062,74.5520932 357,65.6561462 L357,64.0182724 C357,54.6727107 353.816248,50 347.448649,50 C341.663034,50 338.530633,54.0304137 338.051351,62.0913621 L338,65.0299003 Z M408.529906,75.828877 C408.529906,74.3980915 407.774404,73.2501529 406.263379,72.3850267 C404.752353,71.5199006 401.881448,70.6215139 397.650577,69.6898396 C393.419706,68.7581653 389.927611,67.5353611 387.174187,66.0213904 C384.420763,64.5074196 382.322148,62.6690542 380.878279,60.5062389 C379.43441,58.3434235 378.712487,55.8645416 378.712487,53.0695187 C378.712487,48.1116805 380.777524,44.0273482 384.90766,40.8163993 C389.037796,37.6054504 394.443828,36 401.125918,36 C408.311683,36 414.087072,37.6137688 418.452256,40.8413547 C422.817441,44.0689407 425,48.3113225 425,53.5686275 L407.975866,53.5686275 C407.975866,49.2429968 405.675784,47.0802139 401.075551,47.0802139 C399.295899,47.0802139 397.801685,47.5709993 396.592865,48.5525847 C395.384044,49.5341701 394.779643,50.7569743 394.779643,52.2210339 C394.779643,53.7183676 395.518356,54.9328533 396.995803,55.8645276 C398.47325,56.7962019 400.832093,57.5614943 404.072403,58.1604278 C407.312713,58.7593613 410.158435,59.4747433 412.609654,60.3065954 C420.802769,63.1016183 424.899265,68.1092925 424.899265,75.3297683 C424.899265,80.2543324 422.691523,84.2637991 418.275971,87.3582888 C413.860419,90.4527784 408.143792,92 401.125918,92 C396.458529,92 392.294877,91.1681604 388.634837,89.5044563 C384.974798,87.8407522 382.120682,85.5781486 380.072403,82.7165775 C378.024124,79.8550065 377,76.8437472 377,73.6827094 L392.865687,73.6827094 C392.932844,76.1782656 393.77229,77.9999943 395.38405,79.1479501 C396.995811,80.2959059 399.060848,80.8698752 401.579224,80.8698752 C403.896129,80.8698752 405.633782,80.4040451 406.792235,79.4723708 C407.950688,78.5406965 408.529906,77.3262107 408.529906,75.828877 Z M453,90 L436,90 L436,14 L453,14 L453,90 Z M491.420683,91.0017825 C490.830318,89.9037378 490.305558,88.2899691 489.846386,86.1604278 C486.796169,90.0534954 482.532491,92 477.055221,92 C472.037124,92 467.773445,90.4610968 464.264056,87.3832442 C460.754668,84.3053916 459,80.4373376 459,75.7789661 C459,69.9227277 461.131839,65.4973412 465.395582,62.5026738 C469.659325,59.5080064 475.858058,58.0106952 483.991968,58.0106952 L489.108434,58.0106952 L489.108434,55.1657754 C489.108434,50.2079372 486.992993,47.7290553 482.762048,47.7290553 C478.826286,47.7290553 476.858434,49.6921966 476.858434,53.6185383 L460.279116,53.6185383 C460.279116,48.3945075 462.468352,44.1521256 466.846888,40.8912656 C471.225423,37.6304056 476.809203,36 483.598394,36 C490.387584,36 495.74998,37.6803159 499.685743,41.0409982 C503.621506,44.4016805 505.638554,49.0100717 505.736948,54.8663102 L505.736948,78.7736185 C505.802544,83.7314568 506.556887,87.5246452 508,90.1532977 L508,91.0017825 L491.420683,91.0017825 Z M481.620438,81 C483.766434,81 485.546222,80.5172462 486.959854,79.5517241 C488.373486,78.5862021 489.386858,77.4955361 490,76.2796935 L490,67 L484.992701,67 C478.997537,67 476,69.8250037 476,75.4750958 C476,77.1200593 476.527975,78.4521022 477.583942,79.4712644 C478.639908,80.4904266 479.985393,81 481.620438,81 Z M536.449524,70.987061 L545.080952,37 L563,37 L545.181905,91 L527.818095,91 L510,37 L527.969524,37 L536.449524,70.987061 Z M586,91 L569,91 L569,37 L586,37 L586,91 Z M569,24.5 C569,22.0121827 569.880562,19.9735852 571.641711,18.3841463 C573.402861,16.7947075 575.688934,16 578.5,16 C581.311066,16 583.597139,16.7947075 585.358289,18.3841463 C587.119438,19.9735852 588,22.0121827 588,24.5 C588,26.9878173 587.119438,29.0264148 585.358289,30.6158537 C583.597139,32.2052925 581.311066,33 578.5,33 C575.688934,33 573.402861,32.2052925 571.641711,30.6158537 C569.880562,29.0264148 569,26.9878173 569,24.5 Z M626.420683,91.0017825 C625.830318,89.9037378 625.305558,88.2899691 624.846386,86.1604278 C621.796169,90.0534954 617.532491,92 612.055221,92 C607.037124,92 602.773445,90.4610968 599.264056,87.3832442 C595.754668,84.3053916 594,80.4373376 594,75.7789661 C594,69.9227277 596.131839,65.4973412 600.395582,62.5026738 C604.659325,59.5080064 610.858058,58.0106952 618.991968,58.0106952 L624.108434,58.0106952 L624.108434,55.1657754 C624.108434,50.2079372 621.992993,47.7290553 617.762048,47.7290553 C613.826286,47.7290553 611.858434,49.6921966 611.858434,53.6185383 L595.279116,53.6185383 C595.279116,48.3945075 597.468352,44.1521256 601.846888,40.8912656 C606.225423,37.6304056 611.809203,36 618.598394,36 C625.387584,36 630.74998,37.6803159 634.685743,41.0409982 C638.621506,44.4016805 640.638554,49.0100717 640.736948,54.8663102 L640.736948,78.7736185 C640.802544,83.7314568 641.556887,87.5246452 643,90.1532977 L643,91.0017825 L626.420683,91.0017825 Z M616.620438,81 C618.766434,81 620.546222,80.5172462 621.959854,79.5517241 C623.373486,78.5862021 624.386858,77.4955361 625,76.2796935 L625,67 L619.992701,67 C613.997537,67 611,69.8250037 611,75.4750958 C611,77.1200593 611.527975,78.4521022 612.583942,79.4712644 C613.639908,80.4904266 614.985393,81 616.620438,81 Z"/>
  </g>
</svg>
