<svg xmlns="http://www.w3.org/2000/svg" width="737" height="127" viewBox="0 0 737 127">
  <g fill="none" fill-rule="evenodd" transform="translate(0 -15)">
    <g transform="translate(0 15)">
      <path fill="#F60" stroke="#333" stroke-width="1.548" d="M119.36163,63.1873961 C119.36163,97.6576955 92.8147601,125.601394 60.0675365,125.601394 C27.3203128,125.601394 0.773442852,97.6576955 0.773442852,63.1873961 C0.773442852,28.7170967 27.3203128,0.773397884 60.0675365,0.773397884 C92.8147601,0.773397884 119.36163,28.7170967 119.36163,63.1873961 Z"/>
      <path fill="#F60" d="M66.7636097,1.17000446 C80.0100762,12.6196517 88.4612445,29.9663589 88.4612445,49.4028651 C88.4612357,83.8553937 61.9176946,111.820391 29.1873691,111.820391 C26.9145196,111.820391 24.6560978,111.686091 22.4495579,111.423621 C32.6871072,120.282493 45.7956468,125.608296 60.0729211,125.608296 C92.8032466,125.608296 119.370362,97.6432892 119.370353,63.1907694 C119.370353,31.1222316 96.3438621,4.67621783 66.7636097,1.17000446 Z"/>
      <path stroke="#E3DBDB" stroke-width=".58" d="M0.804468375,59.7858871 C0.804468375,59.7858871 16.7462345,27.6894932 58.7258596,24.3250283 C104.066641,20.6911759 117.537637,46.1635801 117.537637,46.1635801"/>
      <path stroke="#3E3F42" stroke-width="1.547" d="M0.804468375,61.3729851 C0.804468375,61.3729851 16.7462345,28.7357993 58.7258596,25.3713255 C104.066641,21.7374731 117.537637,47.7506693 117.537637,47.7506693"/>
      <path stroke="#E3DBDB" stroke-width=".58" d="M56.164002,0.817137122 C56.164002,0.817137122 20.3485598,10.8182945 23.0485036,36.6376746 C26.3278964,67.7363447 114.208282,85.6003577 114.208282,85.6003577"/>
      <path stroke="#3E3F42" stroke-width="1.547" d="M57.910284,0.817137122 C57.910284,0.817137122 21.4273042,10.8182945 24.127248,36.6376746 C27.4066408,67.7363447 115.477525,84.8471376 115.477525,84.8471376"/>
      <path stroke="#E3DBDB" stroke-width=".58" d="M12.5475024,24.8473144 C12.5475024,24.8473144 2.70017716,50.9144094 29.2695043,92.2772199 C48.5723032,122.327602 85.4240112,119.402094 85.4240112,119.402094"/>
      <path stroke="#3E3F42" stroke-width="1.547" d="M13.4240801,24.8473144 C13.4240801,24.8473144 3.58376087,50.9144094 30.598927,92.1833637 C50.1523863,122.053641 87.2473596,118.571604 87.2473596,118.571604"/>
      <path stroke="#E3DBDB" stroke-width=".58" d="M3.22737282,44.6346534 C3.22737282,44.6346534 0.767235519,55.6332515 3.4430297,70.4367043 C6.11882388,85.240157 13.7263659,102.823061 13.7263659,102.823061"/>
      <path stroke="#3E3F42" stroke-width="1.547" d="M3.46764815,43.532022 C3.46764815,43.532022 1.78749893,54.6332515 4.46329311,69.4367043 C7.13908729,84.240157 14.454136,101.925684 14.454136,101.925684"/>
      <path stroke="#3E3F42" stroke-width="1.547" d="M0.804468375,61.3729851 C0.804468375,61.3729851 16.7462345,28.7357993 58.7258596,25.3713255 C104.066641,21.7374731 117.537637,47.7506693 117.537637,47.7506693"/>
      <path d="M119.36163,63.1873961 C119.36163,97.6576955 92.8147601,125.601394 60.0675365,125.601394 C27.3203128,125.601394 0.773442852,97.6576955 0.773442852,63.1873961 C0.773442852,28.7170967 27.3203128,0.773397884 60.0675365,0.773397884 C92.8147601,0.773397884 119.36163,28.7170967 119.36163,63.1873961 Z"/>
      <path stroke="#3E3F42" stroke-width="1.548" d="M119.36163,63.1873961 C119.36163,97.6576955 92.8147601,125.601394 60.0675365,125.601394 C27.3203128,125.601394 0.773442852,97.6576955 0.773442852,63.1873961 C0.773442852,28.7170967 27.3203128,0.773397884 60.0675365,0.773397884 C92.8147601,0.773397884 119.36163,28.7170967 119.36163,63.1873961 Z"/>
    </g>
    <text fill="#3E3F42" font-family="Futura-Bold, Futura" font-size="100" font-weight="bold">
      <tspan x="150" y="104">yugoslavia</tspan>
    </text>
  </g>
</svg>
