<svg xmlns="http://www.w3.org/2000/svg" width="447" height="138" viewBox="0 0 447 138">
  <g fill="none" fill-rule="evenodd">
    <path fill="#3E3F42" stroke="#666" stroke-width=".877" d="M117.044324,126.41305 C117.044324,132.539584 95.7921245,137.506122 69.5762084,137.506122 C43.3602924,137.506122 22.1080934,132.539584 22.1080934,126.41305 C22.1080934,120.286515 43.3602924,115.319978 69.5762084,115.319978 C95.7921245,115.319978 117.044324,120.286515 117.044324,126.41305 Z"/>
    <path fill="#F60" stroke="#333" stroke-width="1.548" d="M119.36163,63.1873961 C119.36163,97.6576955 92.8147601,125.601394 60.0675365,125.601394 C27.3203128,125.601394 0.773442852,97.6576955 0.773442852,63.1873961 C0.773442852,28.7170967 27.3203128,0.773397884 60.0675365,0.773397884 C92.8147601,0.773397884 119.36163,28.7170967 119.36163,63.1873961 Z"/>
    <path fill="#D45500" d="M66.7636097,1.17000446 C80.0100762,12.6196517 88.4612445,29.9663589 88.4612445,49.4028651 C88.4612357,83.8553937 61.9176946,111.820391 29.1873691,111.820391 C26.9145196,111.820391 24.6560978,111.686091 22.4495579,111.423621 C32.6871072,120.282493 45.7956468,125.608296 60.0729211,125.608296 C92.8032466,125.608296 119.370362,97.6432892 119.370353,63.1907694 C119.370353,31.1222316 96.3438621,4.67621783 66.7636097,1.17000446 Z"/>
    <path stroke="#E3DBDB" stroke-width=".58" d="M0.804468375,59.7858871 C0.804468375,59.7858871 16.7462345,27.6894932 58.7258596,24.3250283 C104.066641,20.6911759 117.537637,46.1635801 117.537637,46.1635801"/>
    <path stroke="#666" stroke-width="1.547" d="M0.804468375,61.3729851 C0.804468375,61.3729851 16.7462345,28.7357993 58.7258596,25.3713255 C104.066641,21.7374731 117.537637,47.7506693 117.537637,47.7506693"/>
    <path stroke="#E3DBDB" stroke-width=".58" d="M56.164002,0.817137122 C56.164002,0.817137122 20.3485598,10.8182945 23.0485036,36.6376746 C26.3278964,67.7363447 114.208282,85.6003577 114.208282,85.6003577"/>
    <path stroke="#4D4D4D" stroke-width="1.547" d="M57.910284,0.817137122 C57.910284,0.817137122 21.4273042,10.8182945 24.127248,36.6376746 C27.4066408,67.7363447 115.477525,84.8471376 115.477525,84.8471376"/>
    <path stroke="#E3DBDB" stroke-width=".58" d="M12.5475024,24.8473144 C12.5475024,24.8473144 2.70017716,50.9144094 29.2695043,92.2772199 C48.5723032,122.327602 85.4240112,119.402094 85.4240112,119.402094"/>
    <path stroke="#4D4D4D" stroke-width="1.547" d="M13.4240801,24.8473144 C13.4240801,24.8473144 3.58376087,50.9144094 30.598927,92.1833637 C50.1523863,122.053641 87.2473596,118.571604 87.2473596,118.571604"/>
    <path stroke="#E3DBDB" stroke-width=".58" d="M3.22737282,44.6346534 C3.22737282,44.6346534 0.767235519,55.6332515 3.4430297,70.4367043 C6.11882388,85.240157 13.7263659,102.823061 13.7263659,102.823061"/>
    <path stroke="#4D4D4D" stroke-width="1.547" d="M3.46764815,44.532022 C3.46764815,44.532022 1.78749893,55.6332515 4.46329311,70.4367043 C7.13908729,85.240157 14.454136,102.925684 14.454136,102.925684"/>
    <path stroke="#4D4D4D" stroke-width="1.547" d="M0.804468375,61.3729851 C0.804468375,61.3729851 16.7462345,28.7357993 58.7258596,25.3713255 C104.066641,21.7374731 117.537637,47.7506693 117.537637,47.7506693"/>
    <path d="M119.36163,63.1873961 C119.36163,97.6576955 92.8147601,125.601394 60.0675365,125.601394 C27.3203128,125.601394 0.773442852,97.6576955 0.773442852,63.1873961 C0.773442852,28.7170967 27.3203128,0.773397884 60.0675365,0.773397884 C92.8147601,0.773397884 119.36163,28.7170967 119.36163,63.1873961 Z"/>
    <path stroke="#4D4D4D" stroke-width="1.548" d="M119.36163,63.1873961 C119.36163,97.6576955 92.8147601,125.601394 60.0675365,125.601394 C27.3203128,125.601394 0.773442852,97.6576955 0.773442852,63.1873961 C0.773442852,28.7170967 27.3203128,0.773397884 60.0675365,0.773397884 C92.8147601,0.773397884 119.36163,28.7170967 119.36163,63.1873961 Z"/>
    <path fill="#3E3F42" d="M116.327425,72.2837393 L122.540112,51 L135,51 L119.778918,95.0678078 L119.123134,96.6728111 C116.960188,101.557628 113.140575,104 107.664179,104 C106.145515,104 104.546339,103.767393 102.866604,103.302172 L102.866604,94.8933509 L104.385261,94.8933509 C106.018976,94.8933509 107.267253,94.6549289 108.130131,94.1780777 C108.993008,93.7012265 109.631528,92.8463963 110.045709,91.6135616 L110.977612,89.1013825 L98,51 L110.425373,51 L116.327425,72.2837393 Z M161.643443,84.2758621 C159.158458,87.4253031 155.802617,89 151.57582,89 C147.441919,89 144.312511,87.8103567 142.1875,85.4310345 C140.062489,83.0517122 139,79.6322062 139,75.1724138 L139,51 L150.739754,51 L150.739754,75.2413793 C150.739754,78.4367976 152.307361,80.0344828 155.442623,80.0344828 C158.136625,80.0344828 160.05259,79.0804693 161.190574,77.1724138 L161.190574,51 L173,51 L173,88.3103448 L161.991803,88.3103448 L161.643443,84.2758621 Z M178,69.1812827 C178,65.3889426 178.631573,62.0360093 179.894737,59.1223822 C181.157901,56.2087551 182.970748,53.9599774 185.333333,52.3759817 C187.695918,50.791986 190.444429,50 193.578947,50 C197.532184,50 200.619872,51.3180496 202.842105,53.9541885 L203.263158,50.6937173 L214,50.6937173 L214,86.8017016 C214,90.1084371 213.22223,92.9815541 211.666667,95.4211387 C210.111103,97.8607234 207.859664,99.7337413 204.912281,101.040249 C201.964898,102.346756 198.549727,103 194.666667,103 C191.883027,103 189.187148,102.479717 186.578947,101.439136 C183.970747,100.398555 181.976615,99.0458198 180.596491,97.3808901 L185.54386,90.513089 C187.742701,93.0798558 190.643257,94.3632199 194.245614,94.3632199 C199.485406,94.3632199 202.105263,91.7039969 202.105263,86.3854712 L202.105263,85.2061518 C199.836246,87.6804225 196.970778,88.9175393 193.508772,88.9175393 C188.87717,88.9175393 185.134517,87.1659207 182.280702,83.6626309 C179.426886,80.1593411 178,75.4710154 178,69.5975131 L178,69.1812827 Z M190,69.9534884 C190,73.0465271 190.620815,75.494177 191.862464,77.2965116 C193.104113,79.0988462 194.842396,80 197.077364,80 C199.784159,80 201.758351,79.1511713 203,77.4534884 L203,61.5813953 C201.783184,59.8604565 199.833824,59 197.151862,59 C194.916894,59 193.166195,59.9360372 191.899713,61.8081395 C190.633231,63.6802419 190,66.395331 190,69.9534884 Z M220,69.1524064 C220,65.398377 220.744245,62.0557188 222.232759,59.1243316 C223.721272,56.1929443 225.859501,53.9394018 228.64751,52.3636364 C231.435518,50.7878709 234.707836,50 238.464559,50 C244.205967,50 248.730507,51.7437437 252.038314,55.2312834 C255.346121,58.7188231 257,63.4634281 257,69.4652406 L257,69.8823529 C257,75.7451274 255.340215,80.3970416 252.020594,83.8382353 C248.700973,87.279429 244.205967,89 238.535441,89 C233.077559,89 228.69478,87.3952923 225.386973,84.1858289 C222.079166,80.9763654 220.29534,76.6256959 220.035441,71.1336898 L220,69.1524064 Z M231,69.8837209 C231,73.3721105 231.550445,75.9302244 232.651351,77.5581395 C233.752258,79.1860547 235.380169,80 237.535135,80 C241.751372,80 243.906306,76.779102 244,70.3372093 L244,69.1511628 C244,62.3836871 241.821643,59 237.464865,59 C233.506287,59 231.363065,61.9185755 231.035135,67.755814 L231,69.8837209 Z M281.333683,77.7379679 C281.333683,76.741528 280.798536,75.9420707 279.728227,75.3395722 C278.657917,74.7370736 276.624359,74.1114114 273.627492,73.4625668 C270.630625,72.8137222 268.157058,71.9621265 266.206716,70.907754 C264.256374,69.8533815 262.769855,68.5730913 261.747114,67.0668449 C260.724374,65.5605985 260.213012,63.8342343 260.213012,61.8877005 C260.213012,58.4349203 261.675746,55.5904746 264.601259,53.3542781 C267.526772,51.1180815 271.356045,50 276.089192,50 C281.179109,50 285.270009,51.1238747 288.362015,53.3716578 C291.45402,55.6194408 293,58.5739567 293,62.2352941 L280.941238,62.2352941 C280.941238,59.2228013 279.312013,57.7165775 276.053515,57.7165775 C274.792928,57.7165775 273.734527,58.0583745 272.878279,58.7419786 C272.022031,59.4255827 271.593914,60.2771785 271.593914,61.2967914 C271.593914,62.3395774 272.117169,63.18538 273.163694,63.8342246 C274.210219,64.4830692 275.881066,65.0160407 278.176285,65.4331551 C280.471505,65.8502695 282.487225,66.348482 284.223505,66.9278075 C290.026962,68.8743413 292.928646,72.3618287 292.928646,77.3903743 C292.928646,80.8199815 291.364829,83.6122887 288.237146,85.7673797 C285.109463,87.9224707 281.060186,89 276.089192,89 C272.783124,89 269.833871,88.4206832 267.241343,87.2620321 C264.648815,86.103381 262.62715,84.5276392 261.176285,82.5347594 C259.725421,80.5418795 259,78.4447525 259,76.2433155 L270.238195,76.2433155 C270.285764,77.9812921 270.880372,79.249996 272.022036,80.0494652 C273.163699,80.8489345 274.626434,81.2486631 276.410283,81.2486631 C278.051425,81.2486631 279.282262,80.9242457 280.102833,80.2754011 C280.923404,79.6265565 281.333683,78.7807539 281.333683,77.7379679 Z M312,88 L300,88 L300,34 L312,34 L312,88 Z M340.157631,88.3048128 C339.735942,87.5401031 339.361113,86.4162284 339.033133,84.9331551 C336.854407,87.6443986 333.808922,89 329.896586,89 C326.312231,89 323.266746,87.9282638 320.76004,85.7847594 C318.253334,83.6412549 317,80.9474316 317,77.7032086 C317,73.6247568 318.522742,70.5427912 321.568273,68.4572193 C324.613804,66.3716473 329.04147,65.328877 334.851406,65.328877 L338.506024,65.328877 L338.506024,63.3475936 C338.506024,59.8948134 336.994995,58.1684492 333.972892,58.1684492 C331.161633,58.1684492 329.756024,59.535637 329.756024,62.2700535 L317.913655,62.2700535 C317.913655,58.6318891 319.477394,55.6773732 322.60492,53.4064171 C325.732445,51.135461 329.720859,50 334.570281,50 C339.419703,50 343.249986,51.17022 346.061245,53.5106952 C348.872504,55.8511703 350.313253,59.0605857 350.383534,63.1390374 L350.383534,79.7887701 C350.430388,83.2415502 350.969205,85.8832351 352,87.7139037 L352,88.3048128 L340.157631,88.3048128 Z M333.014599,81 C334.547453,81 335.81873,80.6551759 336.828467,79.9655172 C337.838205,79.2758586 338.562042,78.4968115 339,77.6283525 L339,71 L335.423358,71 C331.141098,71 329,73.0178598 329,77.0536398 C329,78.2286138 329.377125,79.180073 330.131387,79.908046 C330.885649,80.636019 331.846709,81 333.014599,81 Z M371.464762,73.9168207 L377.490476,50 L390,50 L377.560952,88 L365.439048,88 L353,50 L365.544762,50 L371.464762,73.9168207 Z M407,88 L395,88 L395,50 L407,50 L407,88 Z M395,41 C395,39.2438937 395.60249,37.8048837 396.807487,36.6829268 C398.012484,35.56097 399.576639,35 401.5,35 C403.423361,35 404.987516,35.56097 406.192513,36.6829268 C407.39751,37.8048837 408,39.2438937 408,41 C408,42.7561063 407.39751,44.1951163 406.192513,45.3170732 C404.987516,46.43903 403.423361,47 401.5,47 C399.576639,47 398.012484,46.43903 396.807487,45.3170732 C395.60249,44.1951163 395,42.7561063 395,41 Z M435.157631,88.3048128 C434.735942,87.5401031 434.361113,86.4162284 434.033133,84.9331551 C431.854407,87.6443986 428.808922,89 424.896586,89 C421.312231,89 418.266746,87.9282638 415.76004,85.7847594 C413.253334,83.6412549 412,80.9474316 412,77.7032086 C412,73.6247568 413.522742,70.5427912 416.568273,68.4572193 C419.613804,66.3716473 424.04147,65.328877 429.851406,65.328877 L433.506024,65.328877 L433.506024,63.3475936 C433.506024,59.8948134 431.994995,58.1684492 428.972892,58.1684492 C426.161633,58.1684492 424.756024,59.535637 424.756024,62.2700535 L412.913655,62.2700535 C412.913655,58.6318891 414.477394,55.6773732 417.60492,53.4064171 C420.732445,51.135461 424.720859,50 429.570281,50 C434.419703,50 438.249986,51.17022 441.061245,53.5106952 C443.872504,55.8511703 445.313253,59.0605857 445.383534,63.1390374 L445.383534,79.7887701 C445.430388,83.2415502 445.969205,85.8832351 447,87.7139037 L447,88.3048128 L435.157631,88.3048128 Z M428.014599,81 C429.547453,81 430.81873,80.6551759 431.828467,79.9655172 C432.838205,79.2758586 433.562042,78.4968115 434,77.6283525 L434,71 L430.423358,71 C426.141098,71 424,73.0178598 424,77.0536398 C424,78.2286138 424.377125,79.180073 425.131387,79.908046 C425.885649,80.636019 426.846709,81 428.014599,81 Z"/>
  </g>
</svg>
